<?xml version="1.0" encoding="utf-8"?>
<!-- Generator: Adobe Illustrator 27.4.1, SVG Export Plug-In . SVG Version: 6.00 Build 0)  -->
<svg version="1.1" id="Layer_1" xmlns="http://www.w3.org/2000/svg" xmlns:xlink="http://www.w3.org/1999/xlink" x="0px" y="0px"
	 viewBox="0 0 748.2 373.6" style="enable-background:new 0 0 748.2 373.6;" xml:space="preserve">
<style type="text/css">
	.st0{fill:#F2F2F2;}
	.st1{fill:#FFFFFF;}
	.st2{fill:#FFB8B8;}
	.st3{fill:#CCCCCC;}
	.st4{fill:#2F2E41;}
	.st5{fill:#3F3D56;}
</style>
<path class="st0" d="M572.2,326c1.9,15.1,8.6,29.1,16.1,42.5c0.4,0.7,0.7,1.3,1.1,2h96.8c1.7-0.6,3.4-1.3,5.1-2
	c6.2-2.6,12.1-5.9,17.5-9.8c31.5-22.7,43.6-65.5,38.1-103.9c-3.4-23.9-13.9-48.2-34.3-61.1c-11.1-6.7-24.3-9.1-37-6.5
	c-0.3,0.1-0.7,0.1-1,0.2c-10.7,2.4-20.2,8.4-25.6,18c-9.7,17.3-3.9,38.7,0.9,57.9c4.8,19.2,7.3,42.2-6.5,56.4
	c6.3-18.4-3.5-38.5-22-44.8c-6.1-2.1-12.7-2.5-19.1-1.1c-1,0.2-2,0.5-3,0.8c-2.3,0.7-4.6,1.6-6.8,2.8
	C576.4,286.5,569.8,307.5,572.2,326z"/>
<path class="st1" d="M635.3,368.5c-2.2,0.7-4.3,1.4-6.5,2h9.5c1.8-0.6,3.5-1.3,5.2-2c0.4-0.2,0.8-0.3,1.1-0.5
	c14.3-6,27.4-15,37.4-27c4.9-5.8,8.9-12.3,11.8-19.3c3.2-7.9,5.2-16.2,6-24.7c1.8-17.4,0-35.2-3.5-52.3
	c-3.5-17.7-9.3-34.9-17.1-51.2c-0.9-1.9-1.9-3.9-2.9-5.8c-0.1-0.3-0.4-0.6-0.8-0.6c-0.3-0.1-0.7,0-1,0.2c-0.7,0.4-1,1.3-0.6,2
	c8,15.6,14.1,32.2,18.1,49.3c3.9,16.7,6.1,34.2,5.4,51.3c-0.7,16-4.9,31.8-14.4,44.9c-8.9,11.9-20.5,21.5-33.9,27.8
	C644.7,365.1,640,366.9,635.3,368.5z"/>
<path class="st1" d="M597.1,370.5h3.7c0.5-0.7,1-1.3,1.5-2c7.2-9.8,12.1-21.1,14.4-33.1c3.1-16.8,0.7-34.1-6.8-49.4
	c-2.1-4.3-4.6-8.4-7.4-12.2c-1,0.2-2,0.5-3,0.8c7.4,9.8,12.4,21.3,14.6,33.4c3.6,21.4-1.9,43.4-15.3,60.6
	C598.2,369.2,597.7,369.9,597.1,370.5z"/>
<path class="st2" d="M409.5,187.2c-1.5-5.7,2-11.6,7.7-13.1c0.6-0.2,1.2-0.3,1.9-0.3l61.1-76.4l15.1,14.1l-64.6,73
	c0.1,6-4.7,10.8-10.7,10.9C415.1,195.4,410.7,192.1,409.5,187.2L409.5,187.2z"/>
<path class="st3" d="M468.5,109.6l19.3,14.8c2.1,1.6,5.1,1.2,6.8-0.9c0.1-0.2,0.3-0.4,0.4-0.6l11.8-21.2c4.5-5.9,3.3-14.3-2.6-18.7
	c-5.9-4.4-14.2-3.3-18.7,2.5l-17.4,16.8c-1.9,1.9-2,4.9-0.1,6.8C468.1,109.3,468.3,109.4,468.5,109.6L468.5,109.6z"/>
<circle class="st2" cx="500.9" cy="38.9" r="24.6"/>
<polygon class="st2" points="448.5,357.5 436.2,357.5 437.4,334.5 455.5,334.5 "/>
<path class="st4" d="M451.6,353.5h-24.1l0,0c-8.5,0-15.4,6.9-15.4,15.4l0,0v0.5h39.5V353.5z"/>
<polygon class="st2" points="579.2,340.1 568.8,346.5 557.7,326.4 570.3,318.5 "/>
<path class="st4" d="M579.8,335.1l-20.5,12.7l0,0c-7.2,4.5-9.5,13.9-5,21.2l0,0l0.3,0.4l33.6-20.8L579.8,335.1z"/>
<path class="st4" d="M449.4,350.7c1.9,0,3.5-1.2,4.2-2.9l44.3-106c0.3-0.8,1.1-1.2,1.9-0.9c0.3,0.1,0.5,0.3,0.7,0.6l60.9,96
	c1.2,1.8,3.6,2.5,5.6,1.6l8.3-3.9c2.2-1,3.2-3.7,2.2-5.9L527.8,218c1.1-2.7,11.7-29.9-4.6-43.3l-0.1-0.1l-44.3-19.8l-1.1,34
	L433.6,342c-0.7,2.4,0.7,4.9,3.1,5.6h0.1l11.6,3C448.6,350.7,449,350.7,449.4,350.7z"/>
<path class="st3" d="M478.1,105.1c1.7-6.8,4.1-13.6,7.3-16.7c1.2-1.1,2.3-2.4,3.3-3.7c2.2-2.7,4.9-4.9,8-6.5
	c-1.1-0.6-1.8-1.4-1.8-2.2c0-2.2,4.9-4,11-4s11,1.8,11,4c0,0.5-0.3,1-0.7,1.3c8.1,3.3,13.7,10.8,14.5,19.5c1.4,15.2,1.8,34.7-3.1,47
	c-4.2,10.2-4.5,21.5-0.9,31.9c0.7,2.1-0.4,4.4-2.5,5.1c-0.9,0.3-1.9,0.3-2.8-0.1L477.3,163c-1.5-0.6-2.5-2.1-2.5-3.7v-26.9
	C474.8,123.2,475.9,114,478.1,105.1z"/>
<path class="st2" d="M562.2,215.9c-5.8-1.3-9.4-7.1-8-12.9c0.1-0.6,0.3-1.2,0.6-1.8l-34.4-90.7l17.4-4.5l31.8,89.7
	c5.3,2.7,7.4,9.2,4.7,14.5C572,214.7,567,217,562.2,215.9L562.2,215.9z"/>
<path class="st3" d="M520.5,127.7l22-10.3c2.4-1.1,3.4-4,2.3-6.4c-0.1-0.2-0.2-0.4-0.3-0.6l-13.4-20.2c-3.2-6.7-11.2-9.5-17.8-6.3
	c-6.6,3.2-9.5,11.1-6.4,17.7l6.9,23.2c0.8,2.5,3.4,4,6,3.2C520,127.9,520.3,127.8,520.5,127.7z"/>
<path class="st4" d="M478.4,32.8c-1.1,0.1-2.2-0.1-3.2-0.6c-1.8-1.2-1.6-3.9-1-6c3.1-10.1,11.2-18,21.4-20.8
	c3.5-0.9,7.9-0.9,9.9,2.1c10.4-6.9,24.3-5.2,32.7,4c4.1,4.5,6.5,10.4,7.7,16.3C548,38.1,557,59.3,552,68.5c-3.3,6.1-18.6,1.4-25,4
	s-14.3,2.4-20-1.6s-8.7-11.9-6.3-18.4c0.9-2.5,2.6-4.7,3.9-7.1s2.3-5.1,1.7-7.7C505.2,33.8,485.8,32.7,478.4,32.8z"/>
<path class="st5" d="M271.2,369.5c0,0.6,0.4,1,1,1l0,0h475c0.6,0,1-0.4,1-1s-0.4-1-1-1h-475C271.6,368.5,271.2,369,271.2,369.5
	L271.2,369.5z"/>
<ellipse class="st5" cx="199.3" cy="368.5" rx="35" ry="6"/>
<path class="st5" d="M1,371h134c0.6,0,1-0.4,1-1s-0.4-1-1-1H1c-0.6,0-1,0.4-1,1S0.4,371,1,371z"/>
<path class="st5" d="M225.4,108.2c0-22.4-15.7-41.8-37.6-46.6c25.7-5.5,51,10.9,56.6,36.6s-10.9,51-36.6,56.6
	c-6.6,1.4-13.4,1.4-20,0C209.7,150.1,225.3,130.7,225.4,108.2z"/>
<path class="st5" d="M277.2,108.2c0-53.8-40.1-99.1-93.5-105.7c58.4-7.2,111.5,34.4,118.7,92.8c0.5,4.3,0.8,8.6,0.8,12.9
	c0,47.8-70.2,182.4-96.6,231.3c-2.9,5.4-9.7,7.5-15.2,4.5c-1.9-1-3.5-2.6-4.5-4.5c-1-1.8-2-3.8-3.1-5.9
	C212.1,280.7,277.2,154.2,277.2,108.2z"/>
<path class="st5" d="M196.6,346.6c4.5,0,8.6-2.4,10.7-6.4c29.1-53.9,96.7-184.4,96.7-231.8C304.1,49.1,256,1,196.6,1
	S89.2,49.1,89.2,108.4c0,47.4,67.6,177.9,96.7,231.8C188,344.2,192.1,346.7,196.6,346.6z M196.6,3C254.8,3,302,50.2,302.1,108.4
	c0,46.9-67.5,177.1-96.5,230.8c-2.7,5-8.8,6.8-13.8,4.1c-1.8-0.9-3.2-2.4-4.1-4.1c-29-53.8-96.5-183.9-96.5-230.8
	C91.2,50.2,138.4,3,196.6,3z"/>
<path class="st5" d="M196.6,157c26.9,0,48.6-21.8,48.6-48.6s-21.8-48.6-48.6-48.6S148,81.6,148,108.4l0,0
	C148,135.3,169.8,157,196.6,157z M196.6,61.8c25.8,0,46.6,20.9,46.6,46.6S222.4,155,196.6,155S150,134.2,150,108.4l0,0
	C150,82.7,170.9,61.8,196.6,61.8L196.6,61.8z"/>
</svg>
